<?xml version="1.0" ?><svg enable-background="new 0 0 64 64" version="1.1" viewBox="0 0 64 64" xml:space="preserve" xmlns="http://www.w3.org/2000/svg" xmlns:xlink="http://www.w3.org/1999/xlink"><g id="Glyph_copy_2"><path d="M31.994,18.423c-4.498,0-8.144,3.648-8.144,8.149s3.646,8.149,8.144,8.149c4.498,0,8.144-3.648,8.144-8.149   S36.491,18.423,31.994,18.423z M31.995,30.67c-2.262,0-4.096-1.834-4.096-4.096c0-2.262,1.834-4.096,4.096-4.096   s4.096,1.834,4.096,4.096C36.091,28.836,34.257,30.67,31.995,30.67z"/><path d="M61,4.709H3c-1.65,0-3,1.35-3,3v37.667c0,1.65,1.35,3,3,3h24v6.916h-9.125v4h28.25v-4H37v-6.916h24c1.65,0,3-1.35,3-3   V7.709C64,6.059,62.65,4.709,61,4.709z M48.773,29.089l-3.723,0.375c-0.341,1.549-0.952,2.995-1.78,4.292l2.373,2.903l-3.557,3.559   l-2.898-2.373c-1.298,0.831-2.744,1.445-4.295,1.789l-0.372,3.718h-2.515h-0.021H29.47l-0.372-3.718   c-1.552-0.342-2.998-0.956-4.296-1.788l-2.896,2.371l-3.557-3.559l2.372-2.901c-0.828-1.299-1.441-2.744-1.782-4.295l-3.723-0.372   v-5.034l3.723-0.373c0.342-1.55,0.955-2.997,1.782-4.294l-2.372-2.901l3.557-3.559l2.896,2.371c1.297-0.83,2.743-1.444,4.295-1.788   l0.372-3.718h2.515h0.021h2.515l0.372,3.718c1.551,0.343,2.997,0.958,4.294,1.788l2.898-2.373l3.557,3.559l-2.373,2.902   c0.827,1.298,1.44,2.743,1.781,4.293l3.724,0.372V29.089z"/></g></svg>