<?xml version="1.0" ?><svg height="24" id="svg3171" version="1.1" viewBox="0 0 6.3499999 6.3500002" width="24" xmlns="http://www.w3.org/2000/svg" xmlns:cc="http://creativecommons.org/ns#" xmlns:dc="http://purl.org/dc/elements/1.1/" xmlns:inkscape="http://www.inkscape.org/namespaces/inkscape" xmlns:rdf="http://www.w3.org/1999/02/22-rdf-syntax-ns#" xmlns:sodipodi="http://sodipodi.sourceforge.net/DTD/sodipodi-0.dtd" xmlns:svg="http://www.w3.org/2000/svg"><defs id="defs3165"/><g id="layer1"><path d="m 3.1760332,0.52916674 c -1.0194586,0 -1.8531165,0.83175396 -1.8531165,1.85141236 0,1.0196584 0.8336577,1.8514121 1.8531165,1.8514121 1.0194592,0 1.8510502,-0.8317537 1.8510502,-1.8514121 0,-1.0196584 -0.831591,-1.85141236 -1.8510502,-1.85141236 z m 0,0.79316726 c 0.5812055,0 1.0559715,0.476926 1.055972,1.0582451 0,0.5813189 -0.4747665,1.0587617 -1.055972,1.0587617 -0.5812051,0 -1.0585546,-0.4774428 -1.0585546,-1.0587617 C 2.1174787,1.79926 2.5948282,1.322334 3.1760332,1.322334 Z m 0,0.5291226 c -0.2953018,0 -0.5295356,0.2337628 -0.5295356,0.5291225 0,0.2953597 0.2342338,0.5291225 0.5295356,0.5291225 0.2953022,0 0.5290191,-0.2337628 0.5290191,-0.5291225 0,-0.2953597 -0.2337169,-0.5291225 -0.5290191,-0.5291225 z M 2.1174786,4.209772 V 5.5563477 A 0.26453614,0.26458789 0 0 0 2.5684879,5.7439174 L 3.1760332,5.1362531 3.7809956,5.7439174 A 0.26453614,0.26458789 0 0 0 4.2320052,5.5563477 V 4.2108057 C 4.0687967,4.3055178 3.8918461,4.3782698 3.7050523,4.4267951 V 4.919747 L 3.3615,4.5756108 a 0.26453614,0.26458789 0 0 0 -0.3729998,0 L 2.6464976,4.9176803 V 4.4267951 C 2.458884,4.3780832 2.2813796,4.3050109 2.1174786,4.209772 Z" id="path1275" style="color:#000000;font-style:normal;font-variant:normal;font-weight:normal;font-stretch:normal;font-size:medium;line-height:normal;font-family:sans-serif;font-variant-ligatures:normal;font-variant-position:normal;font-variant-caps:normal;font-variant-numeric:normal;font-variant-alternates:normal;font-variant-east-asian:normal;font-feature-settings:normal;font-variation-settings:normal;text-indent:0;text-align:start;text-decoration:none;text-decoration-line:none;text-decoration-style:solid;text-decoration-color:#000000;letter-spacing:normal;word-spacing:normal;text-transform:none;writing-mode:lr-tb;direction:ltr;text-orientation:mixed;dominant-baseline:auto;baseline-shift:baseline;text-anchor:start;white-space:normal;shape-padding:0;shape-margin:0;inline-size:0;clip-rule:nonzero;display:inline;overflow:visible;visibility:visible;opacity:1;isolation:auto;mix-blend-mode:normal;color-interpolation:sRGB;color-interpolation-filters:linearRGB;solid-color:#000000;solid-opacity:1;vector-effect:none;fill:#000000;fill-opacity:1;fill-rule:nonzero;stroke:none;stroke-width:0.529071;stroke-linecap:butt;stroke-linejoin:round;stroke-miterlimit:4;stroke-dasharray:none;stroke-dashoffset:0;stroke-opacity:1;color-rendering:auto;image-rendering:auto;shape-rendering:auto;text-rendering:auto;enable-background:accumulate;stop-color:#000000;stop-opacity:1"/></g></svg>